<?xml version="1.0" encoding="UTF-8"?> <svg xmlns="http://www.w3.org/2000/svg" width="74" height="74" viewBox="0 0 74 74" fill="none"><rect x="24" y="47" width="4" height="15" fill="#D8D9D1"></rect><rect x="24" y="47" width="4" height="15" fill="#D8D9D1"></rect><rect x="24" y="47" width="4" height="15" fill="#D8D9D1"></rect><rect x="43" y="47" width="4" height="15" fill="#D8D9D1"></rect><rect x="43" y="47" width="4" height="15" fill="#D8D9D1"></rect><rect x="43" y="47" width="4" height="15" fill="#D8D9D1"></rect><path d="M38 62V32H34.3822V41.5903C31.7979 41.3443 30.7643 40.3607 30.7643 35.4426H27.1465C26.1128 42.3279 30.7643 44.7869 34.3822 45.2787V62H38Z" fill="#D8D9D1"></path><path d="M29.5303 35.1007V38.6712C29.5317 39.8545 30.0024 40.9888 30.839 41.8255C31.6757 42.6622 32.8101 43.1329 33.9934 43.1343C34.2301 43.1343 34.4572 43.0403 34.6246 42.8729C34.7919 42.7055 34.886 42.4784 34.886 42.2417V31.5302H33.1008V41.1964C32.579 41.0111 32.1274 40.669 31.8077 40.2169C31.4881 39.7648 31.3162 39.2249 31.3155 38.6712V35.1007H29.5303Z" fill="#5B605C"></path><path d="M18.8188 27.9598C18.8194 29.6679 19.3665 31.331 20.38 32.7058C19.3878 33.8743 18.8355 35.3531 18.8188 36.886C18.8188 39.9646 21.0941 42.7237 24.7557 44.0849L25.3805 42.4113C22.4331 41.3169 20.6041 39.1996 20.6041 36.886C20.6224 36.223 20.7717 35.5702 21.0435 34.9652C21.3153 34.3602 21.7041 33.815 22.1876 33.361C22.3476 33.1989 22.4395 32.9818 22.4447 32.7542C22.4498 32.5265 22.3677 32.3055 22.2153 32.1363C21.2996 31.1216 20.7423 29.8344 20.6289 28.4724C20.5154 27.1103 20.8521 25.7487 21.5872 24.5964C22.3223 23.4441 23.4152 22.565 24.6982 22.0938C25.9812 21.6226 27.3833 21.5855 28.6894 21.9881C28.8444 22.0343 29.009 22.0381 29.1659 21.9991C29.3229 21.9602 29.4666 21.88 29.5821 21.7668C29.6966 21.6522 29.7779 21.5086 29.817 21.3513C29.8562 21.1941 29.8518 21.0291 29.8043 20.8742C29.5243 19.9662 29.4551 19.0063 29.6019 18.0676C29.7487 17.1288 30.1076 16.2359 30.6515 15.4568C31.1953 14.6776 31.9096 14.0328 32.7401 13.5712C33.5707 13.1097 34.4955 12.8437 35.4443 12.7934C36.3932 12.743 37.341 12.9098 38.2157 13.2809C39.0903 13.652 39.8689 14.2177 40.492 14.935C41.1152 15.6522 41.5666 16.5022 41.8118 17.4201C42.0571 18.3381 42.0897 19.2999 41.9073 20.2324C41.867 20.4388 41.9009 20.6528 42.003 20.8367C42.105 21.0206 42.2687 21.1625 42.4652 21.2375C43.3018 21.5552 44.0602 22.0493 44.689 22.6861C45.3178 23.3228 45.8022 24.0874 46.1094 24.9279C46.4165 25.7685 46.5393 26.6652 46.4693 27.5574C46.3993 28.4495 46.1382 29.3162 45.7037 30.0985C45.6414 30.2108 45.604 30.3353 45.5942 30.4634C45.5844 30.5914 45.6024 30.7201 45.6469 30.8406C45.6914 30.9611 45.7613 31.0706 45.852 31.1616C45.9427 31.2526 46.0519 31.3229 46.1723 31.3678C49.1224 32.4621 50.9532 34.5768 50.9532 36.886C50.9532 40.3306 46.9489 43.1343 42.027 43.1343C41.4696 43.1348 40.9129 43.0981 40.3604 43.0245L40.123 44.7937C40.7541 44.878 41.3902 44.9201 42.027 44.9195C47.9334 44.9195 52.7384 41.316 52.7384 36.886C52.7384 34.0715 50.8291 31.5222 47.6933 30.0664C48.4522 28.1834 48.4689 26.0828 47.74 24.1881C47.0112 22.2933 45.5909 20.7455 43.7658 19.8566C43.7958 19.5833 43.8113 19.3085 43.8122 19.0336C43.8122 16.9029 42.9658 14.8596 41.4592 13.353C39.9526 11.8464 37.9093 11 35.7786 11C33.648 11 31.6046 11.8464 30.098 13.353C28.5914 14.8596 27.745 16.9029 27.745 19.0336C27.7451 19.3504 27.7636 19.6669 27.8004 19.9815C27.4857 19.9447 27.1692 19.9263 26.8524 19.9262C24.7225 19.9286 22.6805 20.7757 21.1744 22.2818C19.6684 23.7879 18.8212 25.8299 18.8188 27.9598Z" fill="#5B605C"></path><path d="M59.65 32.7478C60.3817 31.5802 60.7705 30.2304 60.772 28.8524C60.7255 27.2289 60.1891 25.6575 59.2333 24.3443C58.2775 23.0312 56.9469 22.0378 55.4163 21.4946C55.2851 17.1645 51.3308 13.6779 46.4901 13.6779C45.8307 13.6773 45.1729 13.7425 44.5264 13.8725L44.8834 15.6229C45.4123 15.5163 45.9506 15.4628 46.4901 15.4631C50.4275 15.4631 53.6311 18.2668 53.6311 21.7115C53.6311 21.7873 53.6248 21.8614 53.6186 21.9364L53.6097 22.0623C53.5968 22.262 53.6514 22.4602 53.7647 22.6252C53.878 22.7901 54.0435 22.9122 54.2345 22.9718C55.5508 23.316 56.7223 24.0726 57.5775 25.1308C58.4327 26.189 58.9266 27.4932 58.9868 28.8524C58.9792 30.1427 58.5325 31.3919 57.7202 32.3943C57.6435 32.4912 57.5878 32.603 57.5566 32.7225C57.5254 32.842 57.5193 32.9667 57.5388 33.0887C57.5583 33.2107 57.6028 33.3274 57.6697 33.4312C57.7366 33.5351 57.8243 33.624 57.9273 33.6922C58.7806 34.2174 59.4883 34.9485 59.9853 35.8185C60.4824 36.6885 60.7529 37.6694 60.772 38.6712C60.772 42.1159 57.5684 44.9196 53.6311 44.9196C52.2231 44.9279 50.8389 44.5556 49.625 43.8422L48.711 45.3766C50.2017 46.2538 51.9014 46.7127 53.6311 46.7048C58.553 46.7048 62.5573 43.1013 62.5573 38.6712C62.54 37.5305 62.2703 36.4078 61.7677 35.3836C61.265 34.3595 60.5418 33.4593 59.65 32.7478Z" fill="#5B605C"></path><path d="M48.2753 55.5417C49.2827 55.3345 50.1879 54.7864 50.8383 53.9897C51.4887 53.1929 51.8445 52.1964 51.8458 51.1679V48.49H50.0606V51.1679C50.0583 51.7197 49.8856 52.2574 49.566 52.7074C49.2464 53.1573 48.7957 53.4975 48.2753 53.6815V46.7048H46.4901V61.8793H44.7049V46.7048H42.9196V61.8793H38.4565V31.5302H36.6713V61.8793H34.886V45.8122C34.886 45.5754 34.792 45.3484 34.6246 45.181C34.4572 45.0136 34.2302 44.9195 33.9934 44.9195C32.3368 44.9177 30.7487 44.2587 29.5773 43.0874C28.4059 41.916 27.747 40.3278 27.7451 38.6712V35.1007H25.9599V38.6712C25.9623 40.6466 26.6914 42.552 28.0084 44.0243C29.3253 45.4967 31.1379 46.433 33.1008 46.6548V61.8793H28.6377V46.7048H26.8525V61.8793H25.0672V46.7048H23.282V51.8963C22.7617 51.7123 22.3109 51.3721 21.9913 50.9221C21.6718 50.4722 21.499 49.9345 21.4968 49.3826V48.49H19.7115V49.3826C19.7128 50.4111 20.0686 51.4077 20.719 52.2044C21.3694 53.0012 22.2746 53.5493 23.282 53.7565V61.8793H12.5706V63.6646H62.5573V61.8793H48.2753V55.5417Z" fill="#5B605C"></path><path d="M9 38.6712C9 43.1013 13.0043 46.7048 17.9262 46.7048C19.6558 46.7127 21.3556 46.2538 22.8463 45.3766L21.9323 43.8422C20.7183 44.5556 19.3342 44.9279 17.9262 44.9196C13.9889 44.9196 10.7852 42.1159 10.7852 38.6712C10.8044 37.6694 11.0749 36.6885 11.572 35.8185C12.069 34.9485 12.7767 34.2174 13.63 33.6922C13.733 33.624 13.8207 33.5351 13.8876 33.4312C13.9544 33.3274 13.999 33.2107 14.0185 33.0887C14.0379 32.9667 14.0319 32.842 14.0007 32.7225C13.9694 32.603 13.9137 32.4912 13.8371 32.3943C13.025 31.3917 12.5783 30.1426 12.5705 28.8524C12.6308 27.4932 13.1245 26.189 13.9795 25.1307C14.8345 24.0724 16.0057 23.3156 17.3219 22.971C17.5129 22.9113 17.6784 22.7892 17.7917 22.6243C17.905 22.4593 17.9596 22.2611 17.9467 22.0614L17.9378 21.9364C17.9324 21.8623 17.9262 21.7873 17.9262 21.7115C17.9262 18.2668 21.1298 15.4631 25.0672 15.4631C25.6067 15.4628 26.145 15.5163 26.6739 15.6229L27.0309 13.8725C26.3844 13.7425 25.7266 13.6773 25.0672 13.6779C20.2265 13.6779 16.2731 17.1645 16.141 21.4937C14.6104 22.0373 13.28 23.0309 12.3242 24.3441C11.3684 25.6574 10.832 27.2289 10.7852 28.8524C10.7871 30.2303 11.1758 31.58 11.9073 32.7478C11.0155 33.4593 10.2923 34.3595 9.7896 35.3836C9.28694 36.4078 9.01728 37.5305 9 38.6712Z" fill="#5B605C"></path><path fill-rule="evenodd" clip-rule="evenodd" d="M62.4557 62.456C57.421 67.4907 51.0064 70.9193 44.0231 72.3083C37.0398 73.6974 29.8014 72.9844 23.2233 70.2596C16.6452 67.5349 11.0228 62.9207 7.06706 57.0005C3.11135 51.0803 1 44.1201 1 37C1 29.8799 3.11135 22.9197 7.06706 16.9995C11.0228 11.0794 16.6452 6.46516 23.2233 3.7404C29.8014 1.01563 37.0398 0.302682 44.0231 1.69171C51.0064 3.08075 57.421 6.50937 62.4557 11.544C65.7986 14.8869 68.4504 18.8556 70.2596 23.2233C72.0688 27.5911 73 32.2724 73 37C73 41.7276 72.0688 46.409 70.2596 50.7767C68.4504 55.1445 65.7986 59.1131 62.4557 62.456V62.456Z" stroke="#5B605C" stroke-width="2" stroke-linecap="round" stroke-linejoin="round"></path></svg> 