<?xml version="1.0" encoding="UTF-8"?> <svg xmlns="http://www.w3.org/2000/svg" width="74" height="74" viewBox="0 0 74 74" fill="none"><rect x="24" y="37" width="7" height="22" fill="#D8D9D1"></rect><rect x="43" y="32" width="7" height="27" fill="#D8D9D1"></rect><path d="M21.8471 42.4277H15.3669C15.152 42.4277 14.946 42.513 14.7941 42.6649C14.6422 42.8168 14.5568 43.0229 14.5568 43.2377V59.4382C14.5568 59.653 14.6422 59.859 14.7941 60.0109C14.946 60.1628 15.152 60.2482 15.3669 60.2482H21.8471C22.0619 60.2482 22.2679 60.1628 22.4198 60.0109C22.5717 59.859 22.6571 59.653 22.6571 59.4382V43.2377C22.6571 43.0229 22.5717 42.8168 22.4198 42.6649C22.2679 42.513 22.0619 42.4277 21.8471 42.4277ZM21.037 58.6281H16.1769V44.0477H21.037V58.6281ZM14.8128 37.2986C14.634 37.2992 14.46 37.2406 14.3179 37.132C14.1759 37.0234 14.0738 36.8708 14.0275 36.698C13.9813 36.5253 13.9935 36.3421 14.0623 36.177C14.1311 36.0119 14.2526 35.8743 14.4078 35.7855L36.489 23.1297C36.6584 23.034 36.8561 23.0016 37.0471 23.0381L42.5853 24.1227L53.4752 15.8605L52.0836 15.6118C51.9761 15.5964 51.8727 15.5595 51.7797 15.5033C51.6867 15.4471 51.606 15.3727 51.5423 15.2847C51.4786 15.1967 51.4333 15.0967 51.4091 14.9908C51.3848 14.8849 51.3822 14.7752 51.4012 14.6682C51.4202 14.5612 51.4606 14.4592 51.5198 14.3681C51.5791 14.277 51.6561 14.1988 51.7462 14.1381C51.8364 14.0775 51.9378 14.0355 52.0444 14.0148C52.1511 13.9941 52.2608 13.9951 52.3671 14.0177L55.4493 14.5661C55.5735 14.5578 55.6979 14.5796 55.8119 14.6294C55.926 14.6793 56.0264 14.7559 56.1047 14.8527C56.183 14.9495 56.2369 15.0637 56.2618 15.1856C56.2867 15.3076 56.282 15.4338 56.2479 15.5535L56.1175 18.6883C56.1087 18.8972 56.0195 19.0946 55.8686 19.2392C55.7176 19.3838 55.5166 19.4645 55.3075 19.4643H55.2735C55.059 19.4553 54.8569 19.3614 54.7116 19.2035C54.5662 19.0455 54.4895 18.8364 54.4983 18.6219L54.5631 17.0691L43.2754 25.6334C43.1839 25.7024 43.0789 25.7512 42.9673 25.7769C42.8556 25.8026 42.7398 25.8045 42.6274 25.7825L37.0301 24.6857L15.2146 37.1917C15.0922 37.2617 14.9538 37.2985 14.8128 37.2986ZM49.2663 31.0873H42.7862C42.5713 31.0873 42.3653 31.1727 42.2134 31.3246C42.0615 31.4765 41.9761 31.6825 41.9761 31.8974V59.4382C41.9761 59.653 42.0615 59.859 42.2134 60.0109C42.3653 60.1628 42.5713 60.2482 42.7862 60.2482H49.2663C49.4812 60.2482 49.6872 60.1628 49.8391 60.0109C49.991 59.859 50.0764 59.653 50.0764 59.4382V31.8974C50.0764 31.6825 49.991 31.4765 49.8391 31.3246C49.6872 31.1727 49.4812 31.0873 49.2663 31.0873ZM48.4563 58.6281H43.5962V32.7074H48.4563V58.6281ZM58.401 21.367H51.9208C51.706 21.367 51.4999 21.4524 51.348 21.6043C51.1961 21.7562 51.1108 21.9622 51.1108 22.1771V59.4382C51.1108 59.653 51.1961 59.859 51.348 60.0109C51.4999 60.1628 51.706 60.2482 51.9208 60.2482H58.401C58.6158 60.2482 58.8218 60.1628 58.9738 60.0109C59.1257 59.859 59.211 59.653 59.211 59.4382V22.1771C59.211 21.9622 59.1257 21.7562 58.9738 21.6043C58.8218 21.4524 58.6158 21.367 58.401 21.367ZM57.591 58.6281H52.7308V22.9871H57.591V58.6281ZM30.9971 35.9475H24.5169C24.3021 35.9475 24.096 36.0328 23.9441 36.1847C23.7922 36.3366 23.7069 36.5427 23.7069 36.7575V59.4382C23.7069 59.653 23.7922 59.859 23.9441 60.0109C24.096 60.1628 24.3021 60.2482 24.5169 60.2482H30.9971C31.2119 60.2482 31.4179 60.1628 31.5699 60.0109C31.7218 59.859 31.8071 59.653 31.8071 59.4382V36.7575C31.8071 36.5427 31.7218 36.3366 31.5699 36.1847C31.4179 36.0328 31.2119 35.9475 30.9971 35.9475ZM30.1871 58.6281H25.3269V37.5675H30.1871V58.6281ZM40.1317 29.4673H33.6515C33.4367 29.4673 33.2307 29.5526 33.0788 29.7045C32.9268 29.8564 32.8415 30.0625 32.8415 30.2773V59.4382C32.8415 59.653 32.9268 59.859 33.0788 60.0109C33.2307 60.1628 33.4367 60.2482 33.6515 60.2482H40.1317C40.3465 60.2482 40.5526 60.1628 40.7045 60.0109C40.8564 59.859 40.9417 59.653 40.9417 59.4382V30.2773C40.9417 30.0625 40.8564 29.8564 40.7045 29.7045C40.5526 29.5526 40.3465 29.4673 40.1317 29.4673ZM39.3217 58.6281H34.4616V31.0873H39.3217V58.6281Z" fill="#5B605C"></path><path fill-rule="evenodd" clip-rule="evenodd" d="M62.4557 62.456C57.421 67.4907 51.0064 70.9193 44.0231 72.3083C37.0398 73.6974 29.8014 72.9844 23.2233 70.2596C16.6452 67.5349 11.0228 62.9207 7.06706 57.0005C3.11135 51.0803 1 44.1201 1 37C1 29.8799 3.11135 22.9197 7.06706 16.9995C11.0228 11.0794 16.6452 6.46516 23.2233 3.7404C29.8014 1.01563 37.0398 0.302682 44.0231 1.69171C51.0064 3.08075 57.421 6.50937 62.4557 11.544C65.7986 14.8869 68.4504 18.8556 70.2596 23.2233C72.0688 27.5911 73 32.2724 73 37C73 41.7276 72.0688 46.409 70.2596 50.7767C68.4504 55.1445 65.7986 59.1131 62.4557 62.456V62.456Z" stroke="#5B605C" stroke-width="2" stroke-linecap="round" stroke-linejoin="round"></path></svg> 