<?xml version="1.0" encoding="UTF-8"?> <svg xmlns="http://www.w3.org/2000/svg" width="74" height="74" viewBox="0 0 74 74" fill="none"><path fill-rule="evenodd" clip-rule="evenodd" d="M62.4557 62.456C57.421 67.4907 51.0064 70.9193 44.0231 72.3083C37.0398 73.6974 29.8014 72.9844 23.2233 70.2596C16.6452 67.5349 11.0228 62.9207 7.06706 57.0005C3.11135 51.0803 1 44.1201 1 37C1 29.8799 3.11135 22.9197 7.06706 16.9995C11.0228 11.0794 16.6452 6.46516 23.2233 3.7404C29.8014 1.01563 37.0398 0.302682 44.0231 1.69171C51.0064 3.08075 57.421 6.50937 62.4557 11.544C65.7986 14.8869 68.4504 18.8556 70.2596 23.2233C72.0688 27.5911 73 32.2724 73 37C73 41.7276 72.0688 46.409 70.2596 50.7767C68.4504 55.1445 65.7986 59.1131 62.4557 62.456V62.456Z" stroke="#5B605C" stroke-width="2" stroke-linecap="round" stroke-linejoin="round"></path><path d="M36.79 19.7083C37.0565 19.7083 37.312 19.6024 37.5005 19.414C37.6889 19.2256 37.7948 18.97 37.7948 18.7035V12.0048C37.7948 11.7383 37.6889 11.4827 37.5005 11.2943C37.312 11.1059 37.0565 11 36.79 11C36.5235 11 36.2679 11.1059 36.0795 11.2943C35.891 11.4827 35.7852 11.7383 35.7852 12.0048V18.7035C35.7852 18.97 35.891 19.2256 36.0795 19.414C36.2679 19.6024 36.5235 19.7083 36.79 19.7083Z" fill="#5B605C"></path><path d="M36.79 53.8717C36.5235 53.8717 36.2679 53.9776 36.0795 54.166C35.891 54.3544 35.7852 54.61 35.7852 54.8765V61.5752C35.7852 61.8417 35.891 62.0973 36.0795 62.2857C36.2679 62.4741 36.5235 62.58 36.79 62.58C37.0565 62.58 37.312 62.4741 37.5005 62.2857C37.6889 62.0973 37.7948 61.8417 37.7948 61.5752V54.8765C37.7948 54.61 37.6889 54.3544 37.5005 54.166C37.312 53.9776 37.0565 53.8717 36.79 53.8717Z" fill="#5B605C"></path><path d="M61.5751 35.7852H54.8764C54.6099 35.7852 54.3543 35.8911 54.1659 36.0795C53.9774 36.2679 53.8716 36.5235 53.8716 36.79C53.8716 37.0565 53.9774 37.3121 54.1659 37.5005C54.3543 37.6889 54.6099 37.7948 54.8764 37.7948H61.5751C61.8416 37.7948 62.0972 37.6889 62.2856 37.5005C62.474 37.3121 62.5799 37.0565 62.5799 36.79C62.5799 36.5235 62.474 36.2679 62.2856 36.0795C62.0972 35.8911 61.8416 35.7852 61.5751 35.7852Z" fill="#5B605C"></path><path d="M19.7083 36.79C19.7083 36.5235 19.6024 36.2679 19.414 36.0795C19.2256 35.8911 18.97 35.7852 18.7035 35.7852H12.0048C11.7383 35.7852 11.4827 35.8911 11.2943 36.0795C11.1059 36.2679 11 36.5235 11 36.79C11 37.0565 11.1059 37.3121 11.2943 37.5005C11.4827 37.6889 11.7383 37.7948 12.0048 37.7948H18.7035C18.97 37.7948 19.2256 37.6889 19.414 37.5005C19.6024 37.3121 19.7083 37.0565 19.7083 36.79Z" fill="#5B605C"></path><path d="M48.9885 25.5965C49.1204 25.5967 49.2512 25.5708 49.373 25.5202C49.4949 25.4696 49.6056 25.3954 49.6985 25.3017L59.1772 15.8298C59.3447 15.6365 59.4327 15.3869 59.4235 15.1313C59.4144 14.8757 59.3088 14.6331 59.1279 14.4523C58.9471 14.2714 58.7044 14.1658 58.4488 14.1566C58.1933 14.1475 57.9437 14.2355 57.7504 14.403L48.2784 23.8816C48.0919 24.0709 47.9873 24.3259 47.9873 24.5917C47.9873 24.8574 48.0919 25.1125 48.2784 25.3017C48.4679 25.4884 48.7225 25.5941 48.9885 25.5965Z" fill="#5B605C"></path><path d="M49.6983 48.2783C49.5079 48.1008 49.2559 48.0042 48.9956 48.0088C48.7353 48.0134 48.4869 48.1188 48.3028 48.3029C48.1188 48.487 48.0133 48.7354 48.0087 48.9957C48.0041 49.256 48.1007 49.5079 48.2782 49.6984L57.7502 59.1771C57.9435 59.3445 58.1931 59.4325 58.4486 59.4234C58.7042 59.4142 58.9469 59.3086 59.1277 59.1278C59.3086 58.9469 59.4142 58.7043 59.4233 58.4487C59.4325 58.1931 59.3445 57.9436 59.177 57.7502L49.6983 48.2783Z" fill="#5B605C"></path><path d="M23.8816 48.2783L14.403 57.7502C14.2355 57.9436 14.1475 58.1931 14.1567 58.4487C14.1658 58.7043 14.2714 58.9469 14.4523 59.1278C14.6331 59.3086 14.8757 59.4142 15.1313 59.4234C15.3869 59.4325 15.6365 59.3445 15.8298 59.1771L25.3018 49.6984C25.4792 49.5079 25.5759 49.256 25.5713 48.9957C25.5667 48.7354 25.4612 48.487 25.2771 48.3029C25.093 48.1188 24.8447 48.0134 24.5844 48.0088C24.324 48.0042 24.0721 48.1008 23.8816 48.2783Z" fill="#5B605C"></path><path d="M15.8298 14.403C15.6365 14.2355 15.3869 14.1475 15.1313 14.1566C14.8757 14.1658 14.6331 14.2714 14.4523 14.4523C14.2714 14.6331 14.1658 14.8757 14.1567 15.1313C14.1475 15.3869 14.2355 15.6365 14.403 15.8298L23.8816 25.3017C23.9746 25.3954 24.0853 25.4696 24.2072 25.5202C24.329 25.5708 24.4597 25.5967 24.5917 25.5965C24.8577 25.5941 25.1123 25.4884 25.3018 25.3017C25.4883 25.1125 25.5929 24.8574 25.5929 24.5917C25.5929 24.3259 25.4883 24.0709 25.3018 23.8816L15.8298 14.403Z" fill="#5B605C"></path><path d="M43.4886 33.5814H39.6101L41.4187 26.8827C41.478 26.6616 41.46 26.4269 41.3677 26.2174C41.2754 26.0079 41.1144 25.8363 40.9112 25.7308C40.7081 25.6253 40.475 25.5924 40.2506 25.6374C40.0262 25.6824 39.8238 25.8027 39.6771 25.9783L29.3209 38.3508C29.1983 38.4965 29.1199 38.6741 29.095 38.8628C29.0701 39.0516 29.0997 39.2435 29.1802 39.4159C29.2614 39.5893 29.39 39.7361 29.5513 39.8393C29.7126 39.9425 29.8998 39.9977 30.0912 39.9987H33.9698L32.1611 46.6974C32.1026 46.918 32.1204 47.1518 32.2116 47.361C32.3029 47.5702 32.4621 47.7424 32.6635 47.8496C32.8089 47.9234 32.9694 47.9624 33.1324 47.9635C33.2793 47.9623 33.4243 47.9294 33.5572 47.867C33.6902 47.8045 33.8081 47.714 33.9028 47.6017L44.259 35.2292C44.3816 35.0836 44.4599 34.9059 44.4849 34.7172C44.5098 34.5285 44.4802 34.3366 44.3997 34.1641C44.3185 33.9907 44.1898 33.8439 44.0286 33.7408C43.8673 33.6376 43.6801 33.5823 43.4886 33.5814ZM35.2894 42.8189L36.2473 39.282C36.2887 39.1334 36.2952 38.9773 36.2661 38.8259C36.237 38.6744 36.1733 38.5318 36.0798 38.4091C35.9863 38.2864 37.5386 37.0054 36.9999 38C37.5386 36.8811 36.4203 36.9995 36.2661 37L37.3191 34.3517C37.2777 34.5003 36.9709 34.3486 36.9999 34.5C37.029 34.6514 36.1539 35.8773 36.2473 36C36.3408 36.1227 37.4613 37.9852 37.9999 36.5C38.1382 36.5682 38.1295 35.6182 38.2837 35.6178L36.2473 36.5L35.2894 42.8189Z" fill="#D8D9D1"></path><path d="M43.4886 33.5814H39.6101L41.4187 26.8827C41.478 26.6616 41.46 26.4269 41.3677 26.2174C41.2754 26.0079 41.1144 25.8363 40.9112 25.7308C40.7081 25.6253 40.475 25.5924 40.2506 25.6374C40.0262 25.6824 39.8238 25.8027 39.6771 25.9783L29.3209 38.3508C29.1983 38.4965 29.1199 38.6741 29.095 38.8628C29.0701 39.0516 29.0997 39.2435 29.1802 39.4159C29.2614 39.5893 29.39 39.7361 29.5513 39.8393C29.7126 39.9425 29.8998 39.9977 30.0912 39.9987H33.9698L32.1611 46.6974C32.1026 46.918 32.1204 47.1518 32.2116 47.361C32.3029 47.5702 32.4621 47.7424 32.6635 47.8496C32.8089 47.9234 32.9694 47.9624 33.1324 47.9635C33.2793 47.9623 33.4243 47.9294 33.5572 47.867C33.6902 47.8045 33.8081 47.714 33.9028 47.6017L44.259 35.2292C44.3816 35.0836 44.4599 34.9059 44.4849 34.7172C44.5098 34.5285 44.4802 34.3366 44.3997 34.1641C44.3185 33.9907 44.1898 33.8439 44.0286 33.7408C43.8673 33.6376 43.6801 33.5823 43.4886 33.5814ZM35.2894 42.8189L36.2473 39.282C36.2887 39.1334 36.2952 38.9773 36.2661 38.8259C36.237 38.6744 36.1733 38.5318 36.0798 38.4091C35.9863 38.2864 35.8657 38.1871 35.7274 38.1189C35.5892 38.0507 35.4369 38.0154 35.2827 38.0159H32.2482L38.2771 30.8148L37.3191 34.3517C37.2777 34.5003 37.2713 34.6564 37.3004 34.8078C37.3295 34.9593 37.3932 35.1019 37.4867 35.2246C37.5801 35.3472 37.7007 35.4466 37.839 35.5148C37.9773 35.583 38.1295 35.6182 38.2837 35.6178H41.3183L35.2894 42.8189Z" fill="#5B605C"></path></svg> 