<?xml version="1.0" encoding="UTF-8"?> <svg xmlns="http://www.w3.org/2000/svg" width="74" height="74" viewBox="0 0 74 74" fill="none"><path d="M26.9919 56.148C26.9919 56.148 32.4316 63.6671 36.7336 62.6741C41.0356 61.6811 44.7816 59.1131 45.4626 57.6331C45.9246 56.4674 46.2221 55.243 46.3459 53.9951L45.4626 51.137L44.2068 49.448L43.6516 47.794V45.7061L42.1106 43.906L40.4236 43.147H39.4768L37.9187 43.906L36.7327 45.7061L35.1067 43.906L33.5847 43.147H31.7175L30.3689 44.541L29.3547 45.701V47.7891L29.9548 48.5491L28.6887 50.0259L27.4397 52.1731L26.9919 54.429V56.148Z" fill="#D8D9D1"></path><path fill-rule="evenodd" clip-rule="evenodd" d="M62.4557 62.456C57.421 67.4907 51.0064 70.9193 44.0231 72.3083C37.0398 73.6974 29.8014 72.9844 23.2233 70.2596C16.6452 67.5349 11.0228 62.9207 7.06706 57.0005C3.11135 51.0803 1 44.1201 1 37C1 29.8799 3.11135 22.9197 7.06706 16.9995C11.0228 11.0794 16.6452 6.46516 23.2233 3.7404C29.8014 1.01563 37.0398 0.302682 44.0231 1.69171C51.0064 3.08075 57.421 6.50937 62.4557 11.544C65.7986 14.8869 68.4504 18.8556 70.2596 23.2233C72.0688 27.5911 73 32.2724 73 37C73 41.7276 72.0688 46.409 70.2596 50.7767C68.4504 55.1445 65.7986 59.1131 62.4557 62.456V62.456Z" stroke="#5B605C" stroke-width="2" stroke-linecap="round" stroke-linejoin="round"></path><path d="M34.5237 37.586L30.9797 35.359C30.8595 35.2832 30.7217 35.2402 30.5797 35.234C29.1623 35.2103 27.7847 35.7029 26.7037 36.62C26.6523 36.6506 26.6058 36.6887 26.5657 36.733C26.5527 36.746 26.5527 36.758 26.5407 36.771C26.4337 36.871 26.3277 36.953 26.2207 37.066C26.0882 37.2119 26.0106 37.3994 26.0015 37.5963C25.9923 37.7932 26.0521 37.9871 26.1706 38.1447C26.289 38.3022 26.4587 38.4135 26.6504 38.4594C26.8421 38.5053 27.0438 38.4829 27.2207 38.396L29.0807 39.971C29.2212 40.0903 29.3968 40.1605 29.5807 40.171C29.7247 40.184 29.8567 40.184 29.9887 40.184C30.6088 40.2072 31.2267 40.0978 31.8012 39.8631C32.3756 39.6284 32.8933 39.2738 33.3197 38.823L33.6267 39.011C33.7617 39.0972 33.9185 39.143 34.0787 39.143C34.2223 39.1437 34.3636 39.1072 34.4889 39.0371C34.6142 38.967 34.7192 38.8657 34.7937 38.743C34.9088 38.5531 34.9449 38.3257 34.8945 38.1095C34.844 37.8933 34.7109 37.7054 34.5237 37.586ZM29.9577 38.495L28.6157 37.353C29.1354 37.0947 29.7039 36.9492 30.2837 36.926L31.8457 37.911C31.3076 38.3274 30.637 38.5348 29.9577 38.495ZM21.9857 32.895C21.9173 32.8069 21.8669 32.7061 21.8375 32.5985C21.808 32.4908 21.8001 32.3784 21.8141 32.2677C21.8281 32.157 21.8638 32.0502 21.9192 31.9533C21.9746 31.8564 22.0485 31.7713 22.1367 31.703L26.3267 28.454C26.4209 28.3792 26.5303 28.3258 26.6472 28.2977C26.7642 28.2695 26.8858 28.2673 27.0037 28.291L35.0507 29.809C35.1629 29.8268 35.2703 29.8669 35.3667 29.927C35.4631 29.987 35.5464 30.0658 35.6118 30.1586C35.6772 30.2514 35.7233 30.3564 35.7474 30.4674C35.7715 30.5784 35.7731 30.693 35.7521 30.8046C35.7311 30.9162 35.6879 31.0224 35.6251 31.117C35.5623 31.2116 35.4812 31.2927 35.3865 31.3554C35.2918 31.4181 35.1856 31.4612 35.074 31.482C34.9623 31.5029 34.8477 31.5012 34.7367 31.477L27.0657 30.028L23.1767 33.045C23.0272 33.1595 22.844 33.2214 22.6557 33.221C22.5252 33.2246 22.3958 33.1968 22.2783 33.1399C22.1608 33.083 22.0588 32.9987 21.9807 32.894L21.9857 32.895ZM46.6357 36.771C46.6297 36.757 46.6212 36.7441 46.6107 36.733C46.5704 36.6906 46.5239 36.6545 46.4727 36.626C45.3932 35.7065 44.0146 35.2135 42.5967 35.24C42.4548 35.2461 42.3169 35.2892 42.1967 35.365L38.6587 37.585C38.4688 37.7045 38.3338 37.8943 38.2832 38.1129C38.2327 38.3315 38.2706 38.5613 38.3887 38.752C38.4639 38.8742 38.569 38.9751 38.6942 39.0451C38.8193 39.1151 38.9603 39.1519 39.1037 39.152C39.2637 39.1503 39.42 39.1046 39.5557 39.02L39.8557 38.832C40.2822 39.2828 40.7999 39.6374 41.3743 39.8721C41.9487 40.1068 42.5666 40.2162 43.1867 40.193C43.3187 40.193 43.4567 40.187 43.5947 40.18C43.7784 40.1683 43.9536 40.0982 44.0947 39.98L45.9577 38.399C46.1347 38.4859 46.3364 38.5083 46.5281 38.4624C46.7197 38.4165 46.8894 38.3052 47.0079 38.1477C47.1263 37.9901 47.1861 37.7962 47.177 37.5993C47.1678 37.4024 47.0903 37.2149 46.9577 37.069C46.8557 36.952 46.7427 36.871 46.6357 36.771ZM43.2297 38.496H43.2107C42.5369 38.5194 41.876 38.3072 41.3417 37.896L42.8977 36.918C43.4774 36.9473 44.045 37.0946 44.5657 37.351L43.2297 38.496ZM37.4587 30.796C37.4379 30.6865 37.4389 30.5739 37.4617 30.4647C37.4844 30.3556 37.5285 30.252 37.5914 30.1599C37.6543 30.0679 37.7348 29.9891 37.8282 29.9282C37.9216 29.8673 38.0261 29.8254 38.1357 29.805L46.1837 28.287C46.3016 28.2633 46.4233 28.2655 46.5402 28.2937C46.6572 28.3219 46.7666 28.3752 46.8607 28.45L51.0507 31.699C51.2287 31.8371 51.3445 32.0402 51.3728 32.2636C51.401 32.4871 51.3393 32.7126 51.2012 32.8905C51.0632 33.0685 50.8601 33.1843 50.6366 33.2125C50.4132 33.2408 50.1877 33.1791 50.0097 33.041L46.1207 30.024L38.4497 31.473C38.2292 31.5135 38.0016 31.4655 37.8163 31.3393C37.631 31.2132 37.5029 31.019 37.4597 30.799L37.4587 30.796ZM47.9207 34.534C46.5027 33.618 41.0717 32.414 39.5347 33.342C38.4958 34.0594 37.5124 34.854 36.5927 35.719C35.6715 34.8559 34.6882 34.0614 33.6507 33.342C32.1137 32.407 26.6817 33.618 25.2647 34.534C23.6777 35.556 21.7587 40.334 21.8087 41.34C21.8527 42.13 22.5797 42.613 25.6667 44.313C26.6577 44.852 27.7367 45.455 28.4767 45.938C28.3525 46.3442 28.3113 46.7712 28.3554 47.1936C28.3996 47.6161 28.5283 48.0253 28.7337 48.397C27.6547 49.827 24.9887 53.797 26.4127 56.457C26.4122 56.4604 26.4125 56.4639 26.4136 56.4672C26.4146 56.4705 26.4164 56.4735 26.4187 56.476C26.5697 56.758 30.1257 63.401 36.5927 63.401C43.0597 63.401 46.6227 56.759 46.7667 56.476C46.7662 56.4726 46.7665 56.4691 46.7676 56.4658C46.7686 56.4626 46.7704 56.4595 46.7727 56.457C48.2027 53.804 45.5367 49.833 44.4577 48.397C44.6605 48.0243 44.7875 47.6152 44.8316 47.1932C44.8758 46.7712 44.836 46.3446 44.7147 45.938C45.4487 45.455 46.5337 44.853 47.5147 44.313C50.4147 42.72 51.3347 42.174 51.3727 41.34C51.4277 40.346 49.5087 35.56 47.9217 34.538L47.9207 34.534ZM36.5927 61.706C32.2777 61.706 29.3667 57.949 28.3387 56.374C30.8728 54.9991 33.7102 54.279 36.5932 54.279C39.4763 54.279 42.3136 54.9991 44.8477 56.374C43.8197 57.952 40.9217 61.71 36.5937 61.71L36.5927 61.706ZM45.4927 54.794C42.7502 53.3401 39.6933 52.58 36.5892 52.58C33.4852 52.58 30.4283 53.3401 27.6857 54.794C27.6357 53.307 28.8017 51.244 29.7177 49.92C29.8557 50.083 29.9557 50.196 29.9997 50.24C30.0793 50.3226 30.1748 50.388 30.2806 50.4322C30.3864 50.4764 30.5001 50.4985 30.6147 50.497C30.8345 50.4957 31.0455 50.4106 31.2047 50.259C31.2857 50.1822 31.3507 50.0901 31.3958 49.988C31.441 49.8859 31.4654 49.7758 31.4677 49.6642C31.47 49.5526 31.4502 49.4417 31.4094 49.3378C31.3685 49.2339 31.3074 49.1392 31.2297 49.059C30.9841 48.7957 30.7635 48.5102 30.5707 48.206C30.5336 48.0517 30.4507 47.9122 30.3327 47.806C30.1916 47.6077 30.0973 47.3799 30.0571 47.1398C30.0169 46.8996 30.0318 46.6535 30.1007 46.42C30.4188 45.7646 30.8845 45.1919 31.4613 44.7468C32.038 44.3018 32.7101 43.9965 33.4247 43.855L34.2397 44.62C33.3372 44.5816 32.4456 44.8298 31.6927 45.329C31.4839 45.4995 31.3161 45.715 31.202 45.9592C31.0879 46.2035 31.0304 46.4704 31.0337 46.74C31.0206 47.1103 31.0834 47.4794 31.2183 47.8246C31.3531 48.1697 31.5571 48.4836 31.8177 48.747C32.442 49.3043 33.2519 49.6085 34.0887 49.6C34.2 49.5984 34.3098 49.5749 34.4119 49.5308C34.514 49.4867 34.6065 49.4229 34.684 49.3431C34.7615 49.2633 34.8225 49.169 34.8635 49.0656C34.9046 48.9622 34.9249 48.8517 34.9232 48.7405C34.9216 48.6293 34.8981 48.5195 34.854 48.4173C34.8099 48.3152 34.7461 48.2228 34.6663 48.1453C34.5865 48.0678 34.4922 48.0068 34.3888 47.9657C34.2854 47.9247 34.175 47.9044 34.0637 47.906H34.0507C33.6678 47.9049 33.2963 47.7746 32.9967 47.536C32.8996 47.4281 32.8255 47.3015 32.7791 47.1639C32.7326 47.0264 32.7148 46.8807 32.7267 46.736C32.7234 46.7144 32.7264 46.6923 32.7353 46.6722C32.7441 46.6522 32.7585 46.6352 32.7767 46.623C33.2027 46.265 34.5897 46.253 35.7437 46.378V48.191C35.7437 48.4157 35.833 48.6311 35.9918 48.7899C36.1506 48.9488 36.3661 49.038 36.5907 49.038C36.8154 49.038 37.0308 48.9488 37.1896 48.7899C37.3485 48.6311 37.4377 48.4157 37.4377 48.191V46.378C38.5917 46.253 39.9777 46.265 40.4047 46.623C40.423 46.6352 40.4374 46.6522 40.4462 46.6722C40.4551 46.6923 40.458 46.7144 40.4547 46.736C40.466 46.8807 40.448 47.0262 40.4016 47.1636C40.3552 47.3011 40.2814 47.4278 40.1847 47.536C39.8886 47.776 39.5189 47.9066 39.1377 47.906H39.1127C38.8881 47.9035 38.6717 47.9903 38.511 48.1474C38.3504 48.3045 38.2588 48.5189 38.2562 48.7435C38.2537 48.9682 38.3405 49.1846 38.4976 49.3452C38.6547 49.5059 38.8691 49.5975 39.0937 49.6C39.9307 49.6094 40.7409 49.3051 41.3647 48.747C41.6249 48.4833 41.8286 48.1693 41.9634 47.8242C42.0982 47.4792 42.1612 47.1103 42.1487 46.74C42.1534 46.4702 42.0964 46.2029 41.9822 45.9584C41.868 45.7139 41.6996 45.4987 41.4897 45.329C40.7355 44.8279 39.8414 44.5796 38.9367 44.62L39.7517 43.855C40.4682 43.9948 41.1422 44.2998 41.7201 44.7458C42.298 45.1918 42.7639 45.7664 43.0807 46.424C43.1502 46.6588 43.1649 46.9064 43.1236 47.1477C43.0823 47.389 42.9863 47.6177 42.8427 47.816C42.7308 47.9217 42.6505 48.0564 42.6107 48.205C42.418 48.5092 42.1974 48.7947 41.9517 49.058C41.7977 49.2214 41.714 49.4387 41.7187 49.6631C41.7233 49.8876 41.816 50.1012 41.9767 50.258C42.1339 50.4077 42.3427 50.4908 42.5597 50.49C42.6731 50.4898 42.7853 50.467 42.8897 50.4229C42.9941 50.3787 43.0886 50.3142 43.1677 50.233C43.2117 50.189 43.3187 50.076 43.4497 49.913C44.3807 51.254 45.5447 53.311 45.4947 54.797L45.4927 54.794ZM46.6927 42.826C45.6577 43.397 44.6037 43.974 43.8137 44.494C43.2966 43.8125 42.6392 43.2499 41.886 42.8441C41.1328 42.4384 40.3014 42.1989 39.4477 42.142C39.2339 42.1426 39.028 42.2232 38.8707 42.368L36.5877 44.507L34.2987 42.374C34.1414 42.2292 33.9355 42.1486 33.7217 42.148C32.8681 42.2049 32.0366 42.4444 31.2834 42.8501C30.5302 43.2559 29.8729 43.8185 29.3557 44.5C28.5657 43.986 27.5117 43.4 26.4767 42.832C25.4613 42.3057 24.477 41.7214 23.5287 41.082C23.7797 39.991 25.2727 36.547 26.1757 35.964C27.3677 35.193 31.9907 34.377 32.7617 34.804C33.9061 35.6218 34.99 36.5211 36.0047 37.495C36.1616 37.6431 36.3691 37.7255 36.5847 37.7255C36.8004 37.7255 37.0079 37.6431 37.1647 37.495C38.1774 36.5211 39.2592 35.6217 40.4017 34.804C41.1797 34.384 45.8017 35.193 46.9937 35.964C47.9027 36.554 49.4087 40.041 49.6467 41.076C48.6995 41.7183 47.7151 42.304 46.6987 42.83L46.6927 42.826ZM56.0447 36.24C55.1461 29.8617 53.8773 23.541 52.2447 17.31C49.8677 9.08102 37.1347 8.87402 36.5827 8.86702C36.0307 8.86002 23.3107 9.08002 20.9327 17.31C19.3014 23.541 18.0342 29.8617 17.1377 36.24C15.7945 42.0365 14.8589 47.9199 14.3377 53.847C14.3315 53.9312 14.3379 54.0158 14.3567 54.098C14.4757 54.625 17.4567 67.069 36.3347 72.959C36.4161 72.9839 36.5007 72.9967 36.5857 72.997C36.6708 72.9972 36.7555 72.9844 36.8367 72.959C55.7227 67.076 58.7027 54.631 58.8217 54.098C58.8405 54.0158 58.8469 53.9312 58.8407 53.847C58.3218 47.9216 57.3895 42.0396 56.0507 36.244L56.0447 36.24ZM36.5937 71.271C19.8657 65.958 16.3937 55.088 16.0457 53.853C16.1897 52.197 17.6517 36.479 21.5907 28.274C23.236 24.9173 26.1045 22.3183 29.6067 21.011C29.8222 20.9447 30.0026 20.7955 30.108 20.5963C30.2135 20.397 30.2355 20.164 30.1692 19.9485C30.1029 19.733 29.9537 19.5527 29.7545 19.4472C29.5552 19.3417 29.3222 19.3197 29.1067 19.386C25.421 20.7156 22.346 23.3424 20.4567 26.775C21.0397 23.775 21.7567 20.547 22.5517 17.787C24.5777 10.762 36.4697 10.567 36.5767 10.567C36.6837 10.567 48.5817 10.755 50.6147 17.787C51.4147 20.547 52.1267 23.777 52.7097 26.769C50.8272 23.3399 47.7595 20.7144 44.0807 19.384C43.8652 19.3177 43.6323 19.3397 43.433 19.4452C43.2337 19.5507 43.0845 19.731 43.0182 19.9465C42.9519 20.162 42.9739 20.395 43.0794 20.5943C43.1849 20.7935 43.3652 20.9427 43.5807 21.009C47.0889 22.3065 49.9606 24.9084 51.5967 28.272C55.5297 36.472 56.9967 52.201 57.1417 53.851C56.7967 55.08 53.3287 65.956 36.5937 71.271Z" fill="#5B605C"></path></svg> 