<?xml version="1.0" encoding="UTF-8"?> <svg xmlns="http://www.w3.org/2000/svg" width="74" height="74" viewBox="0 0 74 74" fill="none"><path d="M27 34C27.5 33.5 28.6056 33 29.5 33C30.5001 33 33.0001 34.5 33.5 34.5C34.2071 34.5 36.5001 33 37.5 33C39.0812 33 40 34.5 41 34.5C42 34.5 43.882 33 45 33C46.0001 33 47.3334 34.1667 48 34.5C48.1667 38 44.5 46 37.5 46C37.4638 46 37.4276 45.9998 37.3915 45.9994C30.4622 45.9206 26.0001 38 27 34Z" fill="#D8D9D1"></path><path d="M37.5 46C44.5 46 48.1667 38 48 34.5C47.3334 34.1667 46.0001 33 45 33C43.882 33 42 34.5 41 34.5C40 34.5 39.0812 33 37.5 33C36.5001 33 34.2071 34.5 33.5 34.5C33.0001 34.5 30.5001 33 29.5 33C28.6056 33 27.5 33.5 27 34C26.0001 38 30.4622 45.9206 37.3915 45.9994M37.5 46C37.4638 46 37.4276 45.9998 37.3915 45.9994M37.5 46L37.3915 45.9994" stroke="#5B605C"></path><path d="M69.8063 51.7578C69.8063 51.7578 70.2862 51.5593 69.5 52.1348C69.5 52.1348 69.6915 53.034 68.5171 53.034C67.3428 53.034 66.8009 52.6372 66.1147 52.1348C65.3286 51.5593 64.4377 50.907 62.707 50.907C60.9763 50.907 60.0856 51.5593 59.2997 52.1349C58.6136 52.6373 58.0717 53.034 56.8977 53.034C55.7236 53.034 55.1816 52.6373 54.4956 52.1349C53.7095 51.5593 52.8187 50.907 51.0881 50.907C49.3575 50.907 48.4667 51.5593 47.6808 52.1349C46.9948 52.6373 46.4529 53.034 45.2788 53.034C44.1046 53.034 43.5629 52.6373 42.8769 52.1349C42.091 51.5593 41.2002 50.907 39.4696 50.907C37.739 50.907 36.8482 51.5593 36.0622 52.1349C35.3761 52.6373 34.8343 53.034 33.6601 53.034C32.4858 53.034 31.9442 52.6373 31.2582 52.1349C30.4721 51.5593 29.5813 50.907 27.8508 50.907C27.6252 50.907 27.4088 50.9966 27.2492 51.1562C27.0896 51.3157 27 51.5321 27 51.7578C27 51.9834 27.0896 52.1998 27.2492 52.3594C27.4088 52.519 27.6252 52.6086 27.8508 52.6086C29.025 52.6086 29.5667 53.0054 30.2527 53.5077C31.0388 54.0833 31.9296 54.7357 33.6601 54.7357C35.3905 54.7357 36.2816 54.0833 37.0675 53.5077C37.7536 53.0054 38.2955 52.6086 39.4696 52.6086C40.6438 52.6086 41.1855 53.0054 41.8715 53.5077C42.6575 54.0833 43.5483 54.7357 45.2788 54.7357C47.0092 54.7357 47.9002 54.0833 48.6861 53.5077C49.3721 53.0054 49.914 52.6086 51.0881 52.6086C52.2623 52.6086 52.8041 53.0054 53.4902 53.5077C54.2762 54.0833 55.1671 54.7357 56.8977 54.7357C58.6283 54.7357 59.5191 54.0833 60.305 53.5077C60.991 53.0054 61.5329 52.6086 62.707 52.6086C63.8812 52.6086 64.4233 53.0055 65.1094 53.5078C65.8955 54.0833 66.7864 54.7357 68.5171 54.7357C69.2032 54.2334 69.8063 53.599 69.8063 53.599C70.032 53.599 69.8404 53.1936 70 53.034C70.1596 52.8745 70 52.7257 70 52.5C70 52.2743 70.5247 52.2944 70.3652 52.1348C70.2056 51.9752 70.032 51.7578 69.8063 51.7578Z" fill="#5B605C"></path><path d="M51.3273 50.907C49.5966 50.907 48.7057 51.5593 47.9195 52.1348C47.2334 52.6372 46.6915 53.034 45.5171 53.034C44.3428 53.034 43.8009 52.6372 43.1147 52.1348C42.3286 51.5593 41.4377 50.907 39.707 50.907C37.9763 50.907 37.0856 51.5593 36.2997 52.1349C35.6136 52.6373 35.0717 53.034 33.8977 53.034C32.7236 53.034 32.1816 52.6373 31.4956 52.1349C30.7095 51.5593 29.8187 50.907 28.0881 50.907C26.3575 50.907 25.4667 51.5593 24.6808 52.1349C23.9948 52.6373 23.4529 53.034 22.2788 53.034C21.1046 53.034 20.5629 52.6373 19.8769 52.1349C19.091 51.5593 18.2002 50.907 16.4696 50.907C14.739 50.907 13.8482 51.5593 13.0622 52.1349C12.3761 52.6373 11.8343 53.034 10.6601 53.034C9.48582 53.034 8.94416 52.6373 8.25818 52.1349C7.47212 51.5593 6.58131 50.907 4.85083 50.907C4.62517 50.907 4.40876 50.9966 4.2492 51.1562C4.08964 51.3157 4 51.5321 4 51.7578C4 51.9834 4.08964 52.1998 4.2492 52.3594C4.40876 52.519 4.62517 52.6086 4.85083 52.6086C6.02497 52.6086 6.56674 53.0054 7.25272 53.5077C8.03877 54.0833 8.92959 54.7357 10.6601 54.7357C12.3905 54.7357 13.2816 54.0833 14.0675 53.5077C14.7536 53.0054 15.2955 52.6086 16.4696 52.6086C17.6438 52.6086 18.1855 53.0054 18.8715 53.5077C19.6575 54.0833 20.5483 54.7357 22.2788 54.7357C24.0092 54.7357 24.9002 54.0833 25.6861 53.5077C26.3721 53.0054 26.914 52.6086 28.0881 52.6086C29.2623 52.6086 29.8041 53.0054 30.4902 53.5077C31.2762 54.0833 32.1671 54.7357 33.8977 54.7357C35.6283 54.7357 36.5191 54.0833 37.305 53.5077C37.991 53.0054 38.5329 52.6086 39.707 52.6086C40.8812 52.6086 41.4232 53.0055 42.1094 53.5078C42.8955 54.0833 43.7864 54.7357 45.5171 54.7357C47.2478 54.7357 48.1388 54.0833 48.9249 53.5078C49.611 53.0055 50.153 52.6086 51.3273 52.6086C51.553 52.6086 51.7694 52.519 51.9289 52.3594C52.0885 52.1998 52.1781 51.9834 52.1781 51.7578C52.1781 51.5321 52.0885 51.3157 51.9289 51.1562C51.7694 50.9966 51.553 50.907 51.3273 50.907Z" fill="#5B605C"></path><path d="M65.5741 57.2882C63.8434 57.2882 62.9525 57.9406 62.1664 58.516C61.4803 59.0184 60.9383 59.4152 59.7639 59.4152C58.5896 59.4152 58.0477 59.0184 57.3615 58.516C56.5755 57.9406 55.6845 57.2882 53.9538 57.2882C52.2232 57.2882 51.3324 57.9406 50.5465 58.5161C49.8604 59.0186 49.3185 59.4152 48.1445 59.4152C46.9705 59.4152 46.4284 59.0186 45.7424 58.5161C44.9563 57.9406 44.0655 57.2882 42.3349 57.2882C40.6044 57.2882 39.7135 57.9406 38.9276 58.5161C38.2416 59.0186 37.6997 59.4152 36.5256 59.4152C35.3514 59.4152 34.8097 59.0186 34.1237 58.5161C33.3379 57.9406 32.447 57.2882 30.7165 57.2882C28.9859 57.2882 28.0951 57.9406 27.309 58.5161C26.6229 59.0186 26.0811 59.4152 24.9069 59.4152C23.7326 59.4152 23.191 59.0186 22.505 58.5161C21.7189 57.9406 20.8281 57.2882 19.0977 57.2882C18.872 57.2882 18.6556 57.3778 18.496 57.5374C18.3365 57.6969 18.2468 57.9134 18.2468 58.139C18.2468 58.3647 18.3365 58.5811 18.496 58.7406C18.6556 58.9002 18.872 58.9898 19.0977 58.9898C20.2718 58.9898 20.8136 59.3866 21.4995 59.8889C22.2856 60.4645 23.1764 61.1169 24.9069 61.1169C26.6374 61.1169 27.5284 60.4645 28.3144 59.8889C29.0004 59.3866 29.5423 58.9898 30.7165 58.9898C31.8906 58.9898 32.4324 59.3866 33.1183 59.8889C33.9043 60.4645 34.7951 61.1169 36.5256 61.1169C38.2561 61.1169 39.147 60.4645 39.9329 59.8889C40.6189 59.3866 41.1608 58.9898 42.3349 58.9898C43.5091 58.9898 44.051 59.3866 44.737 59.8889C45.523 60.4645 46.4139 61.1169 48.1445 61.1169C49.8751 61.1169 50.7659 60.4645 51.5519 59.8889C52.2378 59.3866 52.7797 58.9898 53.9538 58.9898C55.128 58.9898 55.6701 59.3867 56.3563 59.8891C57.1423 60.4645 58.0332 61.1169 59.7639 61.1169C61.4946 61.1169 62.3857 60.4645 63.1717 59.8891C63.8578 59.3867 64.3998 58.9898 65.5741 58.9898C65.7998 58.9898 66.0162 58.9002 66.1758 58.7406C66.3353 58.5811 66.425 58.3647 66.425 58.139C66.425 57.9134 66.3353 57.6969 66.1758 57.5374C66.0162 57.3778 65.7998 57.2882 65.5741 57.2882Z" fill="#5B605C"></path><path d="M54.3273 57.2882C52.5966 57.2882 51.7057 57.9406 50.9195 58.516C50.2334 59.0184 49.6915 59.4152 48.5171 59.4152C47.3428 59.4152 46.8009 59.0184 46.1147 58.516C45.3286 57.9406 44.4377 57.2882 42.707 57.2882C40.9763 57.2882 40.0856 57.9406 39.2997 58.5161C38.6136 59.0186 38.0717 59.4152 36.8977 59.4152C35.7236 59.4152 35.1816 59.0186 34.4956 58.5161C33.7095 57.9406 32.8187 57.2882 31.0881 57.2882C29.3575 57.2882 28.4667 57.9406 27.6808 58.5161C26.9948 59.0186 26.4529 59.4152 25.2788 59.4152C24.1046 59.4152 23.5629 59.0186 22.8769 58.5161C22.091 57.9406 21.2002 57.2882 19.4696 57.2882C17.739 57.2882 16.8482 57.9406 16.0622 58.5161C15.3761 59.0186 14.8343 59.4152 13.6601 59.4152C12.4858 59.4152 11.9442 59.0186 11.2582 58.5161C10.4721 57.9406 9.58131 57.2882 7.85083 57.2882C7.62517 57.2882 7.40876 57.3778 7.2492 57.5374C7.08964 57.6969 7 57.9134 7 58.139C7 58.3647 7.08964 58.5811 7.2492 58.7406C7.40876 58.9002 7.62517 58.9898 7.85083 58.9898C9.02497 58.9898 9.56674 59.3866 10.2527 59.8889C11.0388 60.4645 11.9296 61.1169 13.6601 61.1169C15.3905 61.1169 16.2816 60.4645 17.0675 59.8889C17.7536 59.3866 18.2955 58.9898 19.4696 58.9898C20.6438 58.9898 21.1855 59.3866 21.8715 59.8889C22.6575 60.4645 23.5483 61.1169 25.2788 61.1169C27.0092 61.1169 27.9002 60.4645 28.6861 59.8889C29.3721 59.3866 29.914 58.9898 31.0881 58.9898C32.2623 58.9898 32.8041 59.3866 33.4902 59.8889C34.2762 60.4645 35.1671 61.1169 36.8977 61.1169C38.6283 61.1169 39.5191 60.4645 40.305 59.8889C40.991 59.3866 41.5329 58.9898 42.707 58.9898C43.8812 58.9898 44.4232 59.3867 45.1094 59.8891C45.8955 60.4645 46.7864 61.1169 48.5171 61.1169C50.2478 61.1169 51.1388 60.4645 51.9249 59.8891C52.611 59.3867 53.153 58.9898 54.3273 58.9898C54.553 58.9898 54.7694 58.9002 54.9289 58.7406C55.0885 58.5811 55.1781 58.3647 55.1781 58.139C55.1781 57.9134 55.0885 57.6969 54.9289 57.5374C54.7694 57.3778 54.553 57.2882 54.3273 57.2882Z" fill="#5B605C"></path><path d="M60.5741 63.6694C58.8434 63.6694 57.9525 64.3218 57.1664 64.8973C56.4803 65.3997 55.9383 65.7965 54.7639 65.7965C53.5896 65.7965 53.0477 65.3997 52.3615 64.8973C51.5755 64.3218 50.6845 63.6694 48.9538 63.6694C47.2232 63.6694 46.3324 64.3218 45.5465 64.8974C44.8604 65.3998 44.3185 65.7965 43.1445 65.7965C41.9705 65.7965 41.4284 65.3998 40.7424 64.8974C39.9563 64.3218 39.0655 63.6694 37.3349 63.6694C35.6044 63.6694 34.7135 64.3218 33.9276 64.8974C33.2416 65.3998 32.6997 65.7965 31.5256 65.7965C30.3514 65.7965 29.8097 65.3998 29.1237 64.8974C28.3379 64.3218 27.447 63.6694 25.7165 63.6694C23.9859 63.6694 23.0951 64.3218 22.309 64.8974C21.6229 65.3998 21.0811 65.7965 19.9069 65.7965C18.7326 65.7965 18.191 65.3998 17.505 64.8974C16.7189 64.3218 15.8281 63.6694 14.0977 63.6694C13.872 63.6694 13.6556 63.759 13.496 63.9186C13.3365 64.0782 13.2468 64.2946 13.2468 64.5202C13.2468 64.7459 13.3365 64.9623 13.496 65.1219C13.6556 65.2814 13.872 65.3711 14.0977 65.3711C15.2718 65.3711 15.8136 65.7679 16.4995 66.2702C17.2856 66.8458 18.1764 67.4981 19.9069 67.4981C21.6374 67.4981 22.5284 66.8458 23.3144 66.2702C24.0004 65.7679 24.5423 65.3711 25.7165 65.3711C26.8906 65.3711 27.4324 65.7679 28.1183 66.2702C28.9043 66.8458 29.7951 67.4981 31.5256 67.4981C33.2561 67.4981 34.147 66.8458 34.9329 66.2702C35.6189 65.7679 36.1608 65.3711 37.3349 65.3711C38.5091 65.3711 39.051 65.7679 39.737 66.2702C40.523 66.8458 41.4139 67.4981 43.1445 67.4981C44.8751 67.4981 45.7659 66.8458 46.5519 66.2702C47.2378 65.7679 47.7797 65.3711 48.9538 65.3711C50.128 65.3711 50.6701 65.768 51.3563 66.2703C52.1423 66.8458 53.0332 67.4981 54.7639 67.4981C56.4946 67.4981 57.3857 66.8458 58.1717 66.2703C58.8578 65.768 59.3998 65.3711 60.5741 65.3711C60.7998 65.3711 60.8404 65.1596 61 65C61.1595 64.8404 61.425 64.7459 61.425 64.5202C61.425 64.2946 61.3353 64.0782 61.1758 63.9186C61.0162 63.759 60.7998 63.6694 60.5741 63.6694Z" fill="#5B605C"></path><path d="M47.2498 29.4055L38.1556 15.4071C38.0794 15.2859 37.9746 15.1853 37.8502 15.1143C37.7259 15.0433 37.586 15.004 37.4429 15C37.2999 15.004 37.1601 15.0431 37.0358 15.1139C36.9115 15.1848 36.8066 15.2851 36.7303 15.4062L27.6355 29.3563C27.6213 29.3781 27.6081 29.4057 27.5958 29.4288C25.6496 33.1116 25.8158 37.5162 28.0399 41.2067C30.1468 44.7032 33.6618 46.7918 37.4424 46.7918C41.2298 46.7918 44.7489 44.6999 46.856 41.1947C49.0701 37.5114 49.2315 33.1286 47.288 29.47C47.2762 29.4478 47.2635 29.4264 47.2498 29.4055ZM37.4414 17.45L45.8025 30.3012C46.1715 31.0022 46.4543 31.7453 46.6448 32.5142C46.1556 32.2899 45.6222 32.1788 45.0842 32.189C43.8398 32.189 43.1793 32.6726 42.6487 33.0611C42.202 33.3882 41.9068 33.6044 41.2186 33.6044C40.5303 33.6044 40.2353 33.3882 39.7885 33.0611C39.2579 32.6726 38.5974 32.189 37.353 32.189C36.1087 32.189 35.4481 32.6726 34.9175 33.0611C34.4708 33.3882 34.1757 33.6044 33.4875 33.6044C32.7993 33.6044 32.5044 33.3882 32.0576 33.0611C31.5271 32.6727 30.8664 32.189 29.6221 32.189C29.1546 32.1818 28.69 32.2641 28.2534 32.4313C28.4441 31.6784 28.7225 30.9505 29.083 30.2625L37.4414 17.45ZM45.3976 40.3186C43.6012 43.3072 40.6272 45.0915 37.4424 45.0915C34.2638 45.0915 31.2936 43.3117 29.4978 40.331C28.4457 38.6094 27.9099 36.6221 27.9538 34.605C28.0372 34.5467 28.1176 34.4889 28.1927 34.4339C28.6394 34.1067 28.9346 33.8906 29.6228 33.8906C30.311 33.8906 30.6061 34.1067 31.0529 34.4339C31.5833 34.8225 32.244 35.306 33.4884 35.306C34.7327 35.306 35.3933 34.8225 35.9239 34.4339C36.3705 34.1067 36.6658 33.8906 37.3539 33.8906C38.042 33.8906 38.3372 34.1067 38.784 34.4339C39.3146 34.8225 39.9752 35.306 41.2195 35.306C42.4638 35.306 43.1244 34.8225 43.655 34.4339C44.1017 34.1067 44.3968 33.8906 45.085 33.8906C45.7732 33.8906 46.0686 34.1067 46.5154 34.4339C46.643 34.5276 46.7813 34.6281 46.934 34.7263C46.9564 36.6976 46.424 38.6355 45.3976 40.3186Z" fill="#5B605C"></path><path fill-rule="evenodd" clip-rule="evenodd" d="M62.4557 62.456C57.421 67.4907 51.0064 70.9193 44.0231 72.3083C37.0398 73.6974 29.8014 72.9844 23.2233 70.2596C16.6452 67.5349 11.0228 62.9207 7.06706 57.0005C3.11135 51.0803 1 44.1201 1 37C1 29.8799 3.11135 22.9197 7.06706 16.9995C11.0228 11.0794 16.6452 6.46516 23.2233 3.7404C29.8014 1.01563 37.0398 0.302682 44.0231 1.69171C51.0064 3.08075 57.421 6.50937 62.4557 11.544C65.7986 14.8869 68.4504 18.8556 70.2596 23.2233C72.0688 27.5911 73 32.2724 73 37C73 41.7276 72.0688 46.409 70.2596 50.7767C68.4504 55.1445 65.7986 59.1131 62.4557 62.456V62.456Z" stroke="#5B605C" stroke-width="2" stroke-linecap="round" stroke-linejoin="round"></path></svg> 